<!--?xml version="1.0" encoding="utf-8"?-->
<!-- Generator: Adobe Illustrator 15.1.0, SVG Export Plug-In . SVG Version: 6.00 Build 0)  -->

<svg fill="#e5e7eb" version="1.1" id="_x32_" xmlns="http://www.w3.org/2000/svg" xmlns:xlink="http://www.w3.org/1999/xlink" x="0px" y="0px" width="512px" height="512px" viewBox="0 0 512 512" style="width: 32px; height: 32px; opacity: 1;" xml:space="preserve">
  <g>
    <path class="st0" d="M500.259,324.844c-23.078,28.859-56.953,34.953-56.953,34.953L278.181,175.766l-63.515,59.578l-49.531-50.25
      l13.156-13.156l35.172,35.156l64.453-60.766l-80.39-94.734c0,0-70,0-81.047,0s-16.594,9.219-20.266,16.578
      c-3.688,7.359-18.422,33.156-18.422,33.156l-77.234,3.766c0,0-7.359,73.281,31.328,73.281c0,0,3.672,23.953,22.094,23.953
      s49.719,0,49.719,0s44.406,50.766,50.703,59.063c10.172,13.422,11.813,14.625,7.297,26.813
      c-10.375,28-45.547,106.938-52.516,125.203c-14.094,36.891,29.875,52.031,46.469,23.922c23.547-39.922,50.469-83.625,50.469-83.625
      l14.422,20.188c0,0-11.547,17.297-8.656,43.266c-40.375,0-51.063,43.25-17.313,43.25c57.688,0,193.234,0,193.234,0
      c50.469,0,57.656-25.953,57.656-54.813C485.853,417.156,534.868,368.109,500.259,324.844z"></path>
  </g>
</svg>
