<svg version="1.1" id="_x32_" xmlns="http://www.w3.org/2000/svg" xmlns:xlink="http://www.w3.org/1999/xlink" x="0px" y="0px" viewBox="0 0 512 512" style="opacity: 1;" xml:space="preserve">
<style type="text/css">.st0{fill:#e5e7eb;}</style>
<g>
	<path class="st0" d="M256,0C114.613,0,0,114.615,0,256s114.613,256,256,256c141.383,0,256-114.615,256-256S397.383,0,256,0z
		M99.594,144.848L367.15,412.406C335.754,434.781,297.402,448,256,448c-105.871,0-192-86.131-192-192
		C64,214.596,77.217,176.244,99.594,144.848z M412.404,367.15L144.848,99.594C176.242,77.219,214.594,64,256,64
		c105.867,0,192,86.131,192,192C448,297.404,434.781,335.756,412.404,367.15z" style="fill: #e5e7eb;"></path>
</g>
</svg>
