<?xml version="1.0" standalone="no"?>
<!DOCTYPE svg PUBLIC "-//W3C//DTD SVG 20010904//EN"
 "http://www.w3.org/TR/2001/REC-SVG-20010904/DTD/svg10.dtd">
<svg version="1.0" xmlns="http://www.w3.org/2000/svg"
 width="636.000000pt" height="636.000000pt" viewBox="0 0 636.000000 636.000000"
 preserveAspectRatio="xMidYMid meet">
<metadata>
Created by potrace 1.14, written by Peter Selinger 2001-2017
</metadata>
<g transform="translate(0.000000,636.000000) scale(0.100000,-0.100000)"
fill="#000000" stroke="none">
<path d="M1460 4698 c-104 -10 -209 -36 -245 -61 -16 -12 -57 -50 -89 -85 -85
-90 -93 -93 -317 -89 -104 2 -189 1 -189 -2 0 -3 7 -15 15 -25 24 -31 18 -46
-36 -97 l-51 -48 6 -58 c13 -110 44 -173 127 -254 112 -109 286 -178 514 -203
28 -4 66 -9 85 -13 19 -3 42 -7 50 -8 125 -16 116 -11 168 -94 44 -69 92 -167
92 -188 0 -4 -134 -8 -298 -9 -392 -1 -530 -7 -567 -25 -34 -16 -90 -102 -106
-163 -22 -81 20 -135 110 -144 46 -4 56 -1 120 40 l70 45 108 1 c119 0 181 -8
293 -38 52 -14 121 -14 168 -1 17 5 32 6 32 1 0 -19 -94 -100 -143 -124 -83
-40 -161 -48 -322 -30 -186 20 -385 10 -630 -32 -75 -13 -129 -61 -200 -178
-58 -97 -70 -200 -27 -239 27 -25 87 -47 137 -51 61 -4 106 19 195 104 l75 71
70 -6 c38 -3 86 -8 105 -10 19 -2 69 -7 110 -10 41 -3 104 -7 140 -10 178 -13
271 -25 380 -46 30 -7 60 -12 65 -13 6 -1 35 -10 67 -19 31 -9 63 -15 70 -12
8 3 23 31 34 62 l20 56 65 18 c142 39 181 53 186 68 13 36 57 83 96 101 49 23
93 61 102 89 7 23 55 44 96 43 17 0 52 -8 80 -17 28 -10 52 -15 54 -13 3 2 7
31 10 63 10 99 47 139 109 116 15 -6 28 -11 29 -11 1 0 3 30 5 67 2 69 13 93
42 93 18 0 44 -23 35 -31 -2 -3 -6 -46 -8 -96 -3 -50 -8 -96 -11 -102 -5 -7
-28 -9 -62 -7 -64 6 -70 0 -77 -91 -8 -98 -37 -130 -106 -119 -96 15 -212
-149 -119 -168 173 -34 412 -23 623 31 33 8 71 17 85 19 14 3 41 9 60 14 19 5
46 11 60 14 235 45 346 76 547 156 203 81 242 94 331 105 l44 5 -5 -41 c-5
-41 10 -69 37 -69 25 0 45 -36 65 -120 25 -102 77 -210 129 -266 105 -117 344
-247 558 -303 24 -6 44 -19 47 -29 7 -19 39 -76 80 -140 41 -64 41 -65 8 -137
-17 -37 -45 -99 -62 -138 -65 -154 -70 -161 -113 -165 -48 -3 -128 -37 -152
-63 -24 -26 -23 -79 2 -111 30 -40 127 -89 188 -95 103 -10 149 35 250 242 99
203 145 313 193 467 3 10 -5 30 -20 47 -38 46 -83 146 -112 251 -24 86 -49
153 -92 247 -8 17 -16 37 -17 45 -1 7 -12 44 -24 82 -60 188 -98 508 -65 542
18 17 47 18 61 2 5 -7 12 -66 14 -130 5 -106 8 -121 30 -150 41 -54 47 -72 63
-175 8 -54 24 -126 35 -160 19 -54 26 -63 58 -76 36 -14 86 -25 147 -33 17 -2
46 -6 65 -8 19 -3 55 -8 79 -11 24 -4 64 -15 90 -24 40 -16 47 -23 54 -57 12
-53 52 -181 70 -223 14 -33 13 -37 -21 -109 -45 -96 -48 -150 -10 -189 21 -21
36 -27 67 -26 59 1 99 30 157 111 47 65 52 77 49 115 -6 70 -27 177 -65 327
-12 47 -27 107 -33 134 -7 27 -19 52 -27 56 -8 4 -37 17 -65 30 -85 38 -174
108 -316 249 -144 144 -217 235 -299 371 l-51 84 88 44 c198 98 229 120 448
325 226 213 369 356 405 407 19 27 38 50 41 50 4 0 12 14 20 31 11 28 10 33
-6 45 -20 15 -40 18 -90 15 -66 -4 -291 -155 -565 -380 -136 -112 -227 -172
-301 -200 -70 -27 -76 -27 -94 10 -35 67 -157 171 -289 243 -89 49 -248 94
-406 113 -83 10 -405 9 -670 -2 -242 -9 -473 -10 -579 0 -42 4 -112 10 -156
14 -86 8 -304 6 -345 -3 -14 -3 -37 -8 -52 -12 -16 -3 -28 -1 -28 4 0 12 -69
40 -112 46 -18 2 -59 7 -90 11 -32 4 -58 12 -58 17 0 5 -17 16 -37 24 -40 17
-110 14 -173 -6 -88 -29 -116 -23 -194 39 -21 17 -49 31 -60 31 -12 0 -31 6
-42 14 -29 22 -7 51 41 52 29 1 49 -8 97 -44 36 -27 71 -45 87 -45 15 0 69 13
121 30 52 17 114 33 138 36 50 6 67 18 92 67 10 19 37 58 59 85 44 53 49 80
30 147 -23 84 -73 106 -184 82 -108 -24 -153 -26 -227 -13 -81 14 -144 14
-183 -1 -20 -7 -32 -6 -50 6 -33 22 -116 31 -205 22z m-124 -279 c30 -28 39
-56 24 -74 -19 -23 -45 -18 -60 10 -7 14 -22 26 -32 26 -10 1 -22 3 -28 4 -5
1 -14 3 -20 4 -5 0 -10 12 -10 26 0 49 76 51 126 4z"/>
</g>
</svg>
