<?xml version="1.0" standalone="no"?>
<!DOCTYPE svg PUBLIC "-//W3C//DTD SVG 20010904//EN"
 "http://www.w3.org/TR/2001/REC-SVG-20010904/DTD/svg10.dtd">
<svg version="1.0" xmlns="http://www.w3.org/2000/svg"
 width="173.000000pt" height="173.000000pt" viewBox="0 0 173.000000 173.000000"
 preserveAspectRatio="xMidYMid meet">
<metadata>
Created by potrace 1.14, written by Peter Selinger 2001-2017
</metadata>
<g transform="translate(0.000000,173.000000) scale(0.100000,-0.100000)"
fill="#000000" stroke="none">
<path d="M591 1229 c-22 -7 -56 -34 -90 -72 -163 -179 -217 -218 -311 -227
-55 -5 -61 -8 -37 -14 68 -20 160 11 251 83 47 38 54 38 62 5 4 -14 28 -51 55
-81 39 -45 47 -60 43 -83 -5 -23 -1 -30 28 -47 18 -11 50 -26 70 -33 42 -13
68 -43 68 -77 0 -30 -22 -39 -101 -45 -71 -6 -93 -13 -84 -29 8 -13 157 -11
211 2 37 10 48 9 70 -6 18 -11 23 -21 18 -33 -10 -25 -17 -128 -10 -156 7 -29
40 -50 64 -41 15 6 14 8 -5 23 -30 25 -34 51 -15 107 16 46 20 50 61 60 53 13
63 31 26 45 l-26 10 33 46 c36 50 86 94 189 167 80 56 133 80 230 101 67 15
80 15 147 1 93 -19 99 -19 79 3 -24 26 -21 32 12 32 16 0 34 6 40 14 13 16 -1
29 -99 93 -64 42 -103 59 -160 72 -38 8 -42 7 -50 -14 -11 -30 -55 -39 -158
-33 -63 4 -90 11 -149 41 -123 63 -216 89 -328 93 -55 2 -115 -1 -134 -7z
m224 -312 c4 -23 16 -57 26 -76 26 -44 18 -61 -24 -61 -32 0 -35 3 -41 38 -9
54 -7 97 4 127 13 35 27 24 35 -28z m85 -225 c0 -16 -6 -36 -13 -46 -11 -15
-17 -17 -35 -7 -28 15 -28 19 5 53 34 35 43 35 43 0z"/>
</g>
</svg>
